<svg xmlns="http://www.w3.org/2000/svg" viewBox="0 0 1200 630">
<defs><linearGradient id="g" x1="0" y1="0" x2="1" y2="1">
<stop offset="0" stop-color="#580624"/><stop offset="1" stop-color="#620A28"/>
</linearGradient></defs>
<rect width="1200" height="630" fill="url(#g)"/>
<path d="M6 30c0-8 4-13 10-13s10 5 10 13-4 10-10 10S6 38 6 30zM44 30c0-8-4-13-10-13s-10 5-10 13 4 10 10 10 10-2 10-10zM26 27h8M6 27 3 19m54 8-3-8" fill="none" stroke="#01CCCE" stroke-width="3" stroke-linecap="round" transform="translate(500,180) scale(3.2)"/>
<text x="600" y="430" font-family="Poppins, sans-serif" font-size="52" font-weight="800" fill="#FFFFFF" text-anchor="middle">ÓTICAS MG</text>
<text x="600" y="475" font-family="Poppins, sans-serif" font-size="24" font-weight="500" fill="#01CCCE" text-anchor="middle">Sua ótica em Patrocínio - MG</text>
</svg>